# AST/ASF file generated using VICON BodyLanguage
# -----------------------------------------------
:version 1.10
:name VICON
:units
  mass 1.0
  length 0.45
  angle deg
:documentation
   .ast/.asf automatically generated from VICON data using
   VICON BodyBuilder and BodyLanguage model FoxedUp or BRILLIANT.MOD
:root
   order TX TY TZ RX RY RZ
   axis XYZ
   position 0 0 0  
   orientation 0 0 0 
:bonedata
  begin
     id 1 
     name lhipjoint
     direction 0.440178 -0.822639 0.359871 
     length 2.53113 
     axis 0 0 0  XYZ
  end
  begin
     id 2 
     name lfemur
     direction 0.34202 -0.939693 0  
     length 7.88132  
     axis 0 0 20  XYZ
    dof rx ry rz
    limits (-160.0 20.0)
           (-70.0 70.0)
           (-60.0 70.0)
  end
  begin
     id 3 
     name ltibia
     direction 0.34202 -0.939693 0   
     length 8.43783   
     axis 0 0 20   XYZ
    dof rx
    limits (-10.0 170.0)
  end
  begin
     id 4 
     name lfoot
     direction 0.0886351 -0.243523 0.965837   
     length 2.63414   
     axis -90 7.62852e-016 20   XYZ
    dof rx rz
    limits (-45.0 90.0)
           (-70.0 20.0)
  end
  begin
     id 5 
     name ltoes
     direction 1.53703e-011 -4.21717e-011 1   
     length 1.31427   
     axis -90 7.62852e-016 20   XYZ
    dof rx
    limits (-90.0 20.0)
  end
  begin
     id 6 
     name rhipjoint
     direction -0.399779 -0.839773 0.367367   
     length 2.47948  
     axis 0 0 0  XYZ 
  end
  begin
     id 7 
     name rfemur
     direction -0.34202 -0.939693 0   
     length 7.74806   
     axis 0 0 -20   XYZ
    dof rx ry rz
    limits (-160.0 20.0)
           (-70.0 70.0)
           (-70.0 60.0)
  end
  begin
     id 8 
     name rtibia
     direction -0.34202 -0.939693 0   
     length 8.74432   
     axis 0 0 -20   XYZ
    dof rx
    limits (-10.0 170.0)
 end
 begin
     id 9 
     name rfoot
     direction -0.108514 -0.298139 0.948334   
     length 2.66102  
     axis -90 -7.62852e-016 -20   XYZ
    dof rx rz
    limits (-45.0 90.0)
           (-20.0 70.0)
  end
  begin
     id 10 
     name rtoes
     direction -1.53392e-011 -4.22077e-011 1   
     length 1.31983   
     axis -90 -7.62852e-016 -20   XYZ
    dof rx
    limits (-90.0 20.0)
  end
  begin
     id 11 
     name lowerback
     direction 0.0113257 0.999866 0.0118602   
     length 2.58694   
     axis 0 0 0   XYZ
    dof rx ry rz
    limits (-20.0 45.0)
           (-30.0 30.0)
           (-30.0 30.0)
  end
  begin
     id 12 
     name upperback
     direction -0.0164747 0.995193 -0.0965375   
     length 2.52368   
     axis 0 0 0   XYZ
    dof rx ry rz
    limits (-20.0 45.0)
           (-30.0 30.0)
           (-30.0 30.0)
  end
  begin
     id 13 
     name thorax
     direction -0.0194301 0.99433 -0.104552   
     length 2.56099   
     axis 0 0 0   XYZ
    dof rx ry rz
    limits (-20.0 45.0)
           (-30.0 30.0)
           (-30.0 30.0)
  end
  begin
     id 14 
     name lowerneck
     direction 0.0148543 0.995587 -0.092657   
     length 1.71582   
     axis 0 0 0   XYZ
    dof rx ry rz
    limits (-20.0 45.0)
           (-30.0 30.0)
           (-30.0 30.0)
  end
  begin
     id 15 
     name upperneck
     direction -0.0135467 0.993656 -0.111639   
     length 1.68937   
     axis 0 0 0   XYZ
    dof rx ry rz
    limits (-20.0 45.0)
           (-30.0 30.0)
           (-30.0 30.0)
  end
  begin
     id 16
     name head
     direction -0.00615349 0.999547 -0.029448  
     length 1.7462  
     axis 0 0 0   XYZ
    dof rx ry rz
    limits (-20.0 45.0)
           (-30.0 30.0)
           (-30.0 30.0)
  end
  begin
     id 17 
     name lclavicle
     direction 0.988267 0.149885 0.0293713  
     length 4.47222  
     axis 0 0 0   XYZ
    dof ry rz
    limits (-20.0 10.0)
           (0.0 20.0)
  end
  begin
     id 18 
     name lhumerus
     direction 1 -4.48986e-011 -1.14833e-027   
     length 5.37148   
     axis 180 -30 -90   XYZ
    dof rx ry rz
    limits (-60.0 90.0)
           (-90.0 90.0)
           (-90.0 90.0)
  end
  begin
     id 19
     name lradius
     direction 0.999998 0.00170963 -0.000987055   
     length 3.94212   
     axis 180 -30 -90   XYZ
    dof rx
    limits (-10.0 170.0)
  end
  begin
     id 20
     name lwrist
     direction 0.999998 7.53149e-005 -0.00194706   
     length 1.97106   
     axis 4.65056e-015 90 90   XYZ
    dof ry
    limits (-180.0 0.0)
 end
  begin
     id 21 
     name lhand
     direction 1 -4.48973e-011 -1.31746e-026   
     length 1.17917   
     axis 8.4065e-015 90 90   XYZ
    dof rx rz
    limits (-90.0 90.0)
           (-45.0 45.0)
  end
  begin
     id 22 
     name lfingers
     direction 1 -4.49107e-011 -2.63492e-026   
     length 0.950679   
     axis 1.6813e-014 90 90   XYZ
    dof rx
    limits (0.0 90.0)
  end
  begin
     id 23
     name lthumb
     direction 0.707107 -6.35048e-011 0.707107   
     length 1.36499   
     axis -90 45 2.85299e-015   XYZ
    dof rx rz
    limits (-45.0 45.0)
           (-45.0 45.0)
  end
  begin
     id 24 
     name rclavicle
     direction -0.996699 0.0642895 -0.0495725   
     length 4.62611  
     axis 0 0 0   XYZ 
    dof ry rz
    limits (-10.0 20.0)
           (-20.0 0.0)
  end
  begin
     id 25 
     name rhumerus
     direction -1 -4.48919e-011 -2.41059e-027  
     length 5.4981   
     axis 180 30 90   XYZ
    dof rx ry rz
    limits (-90.0 60.0)
           (-90.0 90.0)
           (-90.0 90.0)
  end
  begin
     id 26 
     name rradius
     direction -0.999999 0.00118101 -0.000681858   
     length 3.48381   
     axis 180 30 90   XYZ
    dof rx
    limits (-10.0 170.0)
  end
  begin
     id 27 
     name rwrist
     direction -0.999999 0.000321823 -0.00132288   
     length 1.7419   
     axis 4.65056e-015 -90 -90   XYZ
    dof ry
    limits (-180.0 0.0)
  end
  begin
     id 28
     name rhand
     direction -1 -4.49022e-011 -1.31746e-026   
     length 1.34932   
     axis 8.4065e-015 -90 -90   XYZ
    dof rx rz
    limits (-90.0 90.0)
           (-45.0 45.0)
  end
  begin
     id 29
     name rfingers
     direction -1 -4.49178e-011 -2.63492e-026   
     length 1.08785   
     axis 1.6813e-014 -90 -90   XYZ
    dof rx
    limits (0.0 90.0)
  end
  begin
     id 30
     name rthumb
     direction -0.707107 -6.34713e-011 0.707107   
     length 1.56195   
     axis -90 -45 -2.85299e-015   XYZ
    dof rx rz
    limits (-45.0 45.0)
           (-45.0 45.0)
  end
:hierarchy
  begin
    root lhipjoint rhipjoint lowerback
    lhipjoint lfemur
    lfemur ltibia
    ltibia lfoot
    lfoot ltoes
    rhipjoint rfemur
    rfemur rtibia
    rtibia rfoot
    rfoot rtoes
    lowerback upperback
    upperback thorax
    thorax lowerneck lclavicle rclavicle
    lowerneck upperneck
    upperneck head
    lclavicle lhumerus
    lhumerus lradius
    lradius lwrist
    lwrist lhand lthumb
    lhand lfingers
    rclavicle rhumerus
    rhumerus rradius
    rradius rwrist
    rwrist rhand rthumb
    rhand rfingers
  end

#!OML:ASF X:\für Bonn\!DataBase\2005_08_10_Bjorn_Final\c3d\bjorn.ASF
:FULLY-SPECIFIED
:DEGREES
1
root -28.6637 19.2244 -24.1975 -1436.54 -12.1789 1.68848
lowerback -6.83847 2.23901 0.755748
upperback 8.95271 3.17416 -2.1187
thorax 13.8238 1.71456 -2.16761
lowerneck -2.69805 -1.27811 0.399241
upperneck 19.4972 -1.85526 0.271529
head 6.35051 -0.856104 -0.096563
rclavicle -8.05078e-015 -3.97569e-016
rhumerus -26.0105 -7.29588 -95.2212
rradius 45.8737
rwrist -2.11413
rhand -16.9669 17.3903
rfingers 7.12502
rthumb 9.26723 -12.3861
lclavicle -8.05078e-015 -3.97569e-016
lhumerus -37.1976 -26.9177 95.6548
lradius 69.2576
lwrist -14.1678
lhand -32.1479 -20.0583
lfingers 7.12502
lthumb -5.39149 9.85313
rfemur -12.5997 -12.3315 15.8005
rtibia 32.3243
rfoot -15.5166 24.1743
rtoes 3.31228
lfemur -12.681 2.72406 -20.644
ltibia 36.5216
lfoot -18.2422 11.9614
ltoes -19.1457
2
root -28.6661 19.2231 -24.2091 -1436.59 -12.2202 1.64692
lowerback -6.72796 2.26247 0.835855
upperback 8.92226 3.19451 -2.1232
thorax 13.7246 1.73237 -2.21736
lowerneck -2.57332 -1.30158 0.319699
upperneck 19.4094 -1.89311 0.355434
head 6.3025 -0.874428 -0.057492
rclavicle -1.26228e-014 1.11319e-014
rhumerus -26.0496 -6.78964 -95.3221
rradius 46.0882
rwrist -2.17271
rhand -16.9026 17.5676
rfingers 7.12502
rthumb 9.32932 -12.206
lclavicle -1.26228e-014 1.11319e-014
lhumerus -37.2595 -26.8839 95.6553
lradius 69.345
lwrist -14.1832
lhand -32.2622 -20.2911
lfingers 7.12502
lthumb -5.50186 9.61747
rfemur -12.5919 -12.5056 15.8353
rtibia 32.3351
rfoot -15.352 24.4235
rtoes 3.56302
lfemur -12.7083 2.68026 -20.6296
ltibia 36.6095
lfoot -18.5983 11.8266
ltoes -18.7005
3
root -28.6685 19.2219 -24.2204 -1436.61 -12.25 1.5861
lowerback -6.65724 2.27156 0.905963
upperback 8.90682 3.19461 -2.10458
thorax 13.6649 1.73807 -2.23848
lowerneck -2.44987 -1.32281 0.226746
upperneck 19.2805 -1.92158 0.412291
head 6.24155 -0.891367 -0.02403
rclavicle -3.01159e-014 -7.35503e-015
rhumerus -26.0421 -6.2654 -95.4102
rradius 46.2986
rwrist -2.16895
rhand -16.8204 17.716
rfingers 7.12502
rthumb 9.40864 -12.054
lclavicle -3.01159e-014 -7.35503e-015
lhumerus -37.2545 -26.8121 95.6592
lradius 69.3971
lwrist -14.2072
lhand -32.3547 -20.5246
lfingers 7.12502
lthumb -5.59124 9.38168
rfemur -12.6041 -12.6555 15.9044
rtibia 32.3442
rfoot -15.2826 24.5995
rtoes 3.6691
lfemur -12.7637 2.63732 -20.5981
ltibia 36.6895
lfoot -18.9851 11.4803
ltoes -18.3506
4
root -28.6696 19.22 -24.23 -1436.64 -12.2848 1.54359
lowerback -6.59037 2.27282 0.967633
upperback 8.90847 3.18673 -2.09556
thorax 13.6276 1.73996 -2.26673
lowerneck -2.4129 -1.32994 0.167325
upperneck 19.1954 -1.92775 0.428165
head 6.20882 -0.89779 -0.00875037
rclavicle -3.17062e-014 1.98785e-015
rhumerus -26.0237 -5.68958 -95.4905
rradius 46.5275
rwrist -2.17386
rhand -16.7107 17.8378
rfingers 7.12502
rthumb 9.51452 -11.9274
lclavicle -3.17062e-014 1.98785e-015
lhumerus -37.2116 -26.7084 95.6342
lradius 69.4587
lwrist -14.2216
lhand -32.4016 -20.7337
lfingers 7.12502
lthumb -5.63648 9.17136
rfemur -12.6114 -12.8911 15.9306
rtibia 32.3653
rfoot -15.1092 24.9269
rtoes 4.01547
lfemur -12.801 2.62819 -20.6004
ltibia 36.7556
lfoot -19.3624 10.9865
ltoes -17.8697
